HIERARCHY
ROOT Hips
{
    OFFSET   0.000000   0.000000   0.000000
    CHANNELS 6 Xposition Yposition Zposition Zrotation Xrotation Yrotation
    JOINT Chest
    {
        OFFSET   0.000000   8.007230   0.000000
        CHANNELS 3 Zrotation Xrotation Yrotation
        JOINT Chest2
        {
            OFFSET   0.000000  22.077100   0.000000
            CHANNELS 3 Zrotation Xrotation Yrotation
            JOINT Neck
            {
                OFFSET   0.000000  23.255100   0.000000
                CHANNELS 3 Zrotation Xrotation Yrotation
                JOINT Head
                {
                    OFFSET   0.000000  14.370100   1.956600
                    CHANNELS 3 Zrotation Xrotation Yrotation
                    End Site
                    {
                        OFFSET   0.000000  19.566000   0.000000
                    }
                }
            }
            JOINT LeftCollar
            {
                OFFSET   3.911900  19.017000  -0.467063
                CHANNELS 3 Zrotation Xrotation Yrotation
                JOINT LeftShoulder
                {
                    OFFSET  10.383700   0.000000   0.000000
                    CHANNELS 3 Zrotation Xrotation Yrotation
                    JOINT LeftElbow
                    {
                        OFFSET  26.662100   0.001193   0.000980
                        CHANNELS 3 Zrotation Xrotation Yrotation
                        JOINT LeftWrist
                        {
                            OFFSET  28.869000  -0.000059  -0.000082
                            CHANNELS 3 Zrotation Xrotation Yrotation
                            JOINT LeftFinger0
                            {
                                OFFSET   2.044650  -2.323450   3.252850
                                CHANNELS 3 Zrotation Xrotation Yrotation
                                JOINT LeftFinger01
                                {
                                    OFFSET   3.088130   0.000000   0.000000
                                    CHANNELS 3 Zrotation Xrotation Yrotation
                                    JOINT LeftFinger02
                                    {
                                        OFFSET   2.639460   0.000000   0.000000
                                        CHANNELS 3 Zrotation Xrotation Yrotation
                                        End Site
                                        {
                                            OFFSET   2.582190   0.000000   0.000000
                                        }
                                    }
                                }
                            }
                            JOINT LeftFinger1
                            {
                                OFFSET   8.364480   0.000000   3.252850
                                CHANNELS 3 Zrotation Xrotation Yrotation
                                JOINT LeftFinger11
                                {
                                    OFFSET   4.646930   0.000000   0.000000
                                    CHANNELS 3 Zrotation Xrotation Yrotation
                                    JOINT LeftFinger12
                                    {
                                        OFFSET   2.323470   0.000000   0.000000
                                        CHANNELS 3 Zrotation Xrotation Yrotation
                                        End Site
                                        {
                                            OFFSET   2.273050   0.000000   0.000000
                                        }
                                    }
                                }
                            }
                            JOINT LeftFinger2
                            {
                                OFFSET   8.364490   0.000016   1.078090
                                CHANNELS 3 Zrotation Xrotation Yrotation
                                JOINT LeftFinger21
                                {
                                    OFFSET   5.111610   0.000000   0.000000
                                    CHANNELS 3 Zrotation Xrotation Yrotation
                                    JOINT LeftFinger22
                                    {
                                        OFFSET   2.788150   0.000016   0.000000
                                        CHANNELS 3 Zrotation Xrotation Yrotation
                                        End Site
                                        {
                                            OFFSET   2.727660   0.000000   0.000000
                                        }
                                    }
                                }
                            }
                            JOINT LeftFinger3
                            {
                                OFFSET   7.899780   0.000015  -1.078090
                                CHANNELS 3 Zrotation Xrotation Yrotation
                                JOINT LeftFinger31
                                {
                                    OFFSET   4.646930   0.000000   0.000000
                                    CHANNELS 3 Zrotation Xrotation Yrotation
                                    JOINT LeftFinger32
                                    {
                                        OFFSET   2.323470   0.000000   0.000000
                                        CHANNELS 3 Zrotation Xrotation Yrotation
                                        End Site
                                        {
                                            OFFSET   2.273050   0.000000   0.000000
                                        }
                                    }
                                }
                            }
                            JOINT LeftFinger4
                            {
                                OFFSET   7.435090   0.000000  -3.252850
                                CHANNELS 3 Zrotation Xrotation Yrotation
                                JOINT LeftFinger41
                                {
                                    OFFSET   3.717550   0.000000   0.000000
                                    CHANNELS 3 Zrotation Xrotation Yrotation
                                    JOINT LeftFinger42
                                    {
                                        OFFSET   1.858770   0.000000   0.000000
                                        CHANNELS 3 Zrotation Xrotation Yrotation
                                        End Site
                                        {
                                            OFFSET   1.818440   0.000000   0.000000
                                        }
                                    }
                                }
                            }
                        }
                    }
                }
            }
            JOINT RightCollar
            {
                OFFSET  -3.911910  19.017000  -0.467062
                CHANNELS 3 Zrotation Xrotation Yrotation
                JOINT RightShoulder
                {
                    OFFSET -10.383700   0.000014   0.000000
                    CHANNELS 3 Zrotation Xrotation Yrotation
                    JOINT RightElbow
                    {
                        OFFSET -26.662100   0.001225   0.001091
                        CHANNELS 3 Zrotation Xrotation Yrotation
                        JOINT RightWrist
                        {
                            OFFSET -28.869000  -0.000020  -0.000085
                            CHANNELS 3 Zrotation Xrotation Yrotation
                            JOINT RightFinger0
                            {
                                OFFSET  -2.044650  -2.323490   3.252850
                                CHANNELS 3 Zrotation Xrotation Yrotation
                                JOINT RightFinger01
                                {
                                    OFFSET  -3.088130   0.000000   0.000000
                                    CHANNELS 3 Zrotation Xrotation Yrotation
                                    JOINT RightFinger02
                                    {
                                        OFFSET  -2.639460   0.000000   0.000000
                                        CHANNELS 3 Zrotation Xrotation Yrotation
                                        End Site
                                        {
                                            OFFSET  -2.582190   0.000000   0.000000
                                        }
                                    }
                                }
                            }
                            JOINT RightFinger1
                            {
                                OFFSET  -8.364480   0.000000   3.252850
                                CHANNELS 3 Zrotation Xrotation Yrotation
                                JOINT RightFinger11
                                {
                                    OFFSET  -4.646930   0.000000   0.000000
                                    CHANNELS 3 Zrotation Xrotation Yrotation
                                    JOINT RightFinger12
                                    {
                                        OFFSET  -2.323470   0.000000   0.000000
                                        CHANNELS 3 Zrotation Xrotation Yrotation
                                        End Site
                                        {
                                            OFFSET  -2.273050   0.000000   0.000000
                                        }
                                    }
                                }
                            }
                            JOINT RightFinger2
                            {
                                OFFSET  -8.364480   0.000000   1.078090
                                CHANNELS 3 Zrotation Xrotation Yrotation
                                JOINT RightFinger21
                                {
                                    OFFSET  -5.111620   0.000000   0.000000
                                    CHANNELS 3 Zrotation Xrotation Yrotation
                                    JOINT RightFinger22
                                    {
                                        OFFSET  -2.788160   0.000000   0.000000
                                        CHANNELS 3 Zrotation Xrotation Yrotation
                                        End Site
                                        {
                                            OFFSET  -2.727660   0.000000   0.000000
                                        }
                                    }
                                }
                            }
                            JOINT RightFinger3
                            {
                                OFFSET  -7.899780   0.000000  -1.078090
                                CHANNELS 3 Zrotation Xrotation Yrotation
                                JOINT RightFinger31
                                {
                                    OFFSET  -4.646930   0.000000   0.000000
                                    CHANNELS 3 Zrotation Xrotation Yrotation
                                    JOINT RightFinger32
                                    {
                                        OFFSET  -2.323470   0.000000   0.000000
                                        CHANNELS 3 Zrotation Xrotation Yrotation
                                        End Site
                                        {
                                            OFFSET  -2.273050   0.000000   0.000000
                                        }
                                    }
                                }
                            }
                            JOINT RightFinger4
                            {
                                OFFSET  -7.435090   0.000000  -3.252850
                                CHANNELS 3 Zrotation Xrotation Yrotation
                                JOINT RightFinger41
                                {
                                    OFFSET  -3.717550   0.000000   0.000000
                                    CHANNELS 3 Zrotation Xrotation Yrotation
                                    JOINT RightFinger42
                                    {
                                        OFFSET  -1.858760   0.000000   0.000000
                                        CHANNELS 3 Zrotation Xrotation Yrotation
                                        End Site
                                        {
                                            OFFSET  -1.818440   0.000000   0.000000
                                        }
                                    }
                                }
                            }
                        }
                    }
                }
            }
        }
    }
    JOINT LeftHip
    {
        OFFSET   9.783030   0.000000   0.000000
        CHANNELS 3 Zrotation Xrotation Yrotation
        JOINT LeftKnee
        {
            OFFSET   0.000063 -41.789100   0.000608
            CHANNELS 3 Zrotation Xrotation Yrotation
            JOINT LeftAnkle
            {
                OFFSET   0.000048 -41.133200  -0.000184
                CHANNELS 3 Zrotation Xrotation Yrotation
                JOINT LeftToe
                {
                    OFFSET   0.000000  -6.358960  14.674500
                    CHANNELS 3 Zrotation Xrotation Yrotation
                    End Site
                    {
                        OFFSET   0.000000   0.000000   3.913200
                    }
                }
            }
        }
    }
    JOINT RightHip
    {
        OFFSET  -9.783030   0.000000   0.000000
        CHANNELS 3 Zrotation Xrotation Yrotation
        JOINT RightKnee
        {
            OFFSET   0.000071 -41.789100   0.001239
            CHANNELS 3 Zrotation Xrotation Yrotation
            JOINT RightAnkle
            {
                OFFSET   0.000037 -41.133200  -0.000166
                CHANNELS 3 Zrotation Xrotation Yrotation
                JOINT RightToe
                {
                    OFFSET   0.000000  -6.358960  14.674500
                    CHANNELS 3 Zrotation Xrotation Yrotation
                    End Site
                    {
                        OFFSET   0.000000   0.000000   3.913200
                    }
                }
            }
        }
    }
}
MOTION
Frames: 4
Frame Time:   0.016667
 -2.885040  89.813400   0.953693  -3.643230 -10.858300 -11.844300   0.245162   8.587730  -2.276660   0.854376  17.158500  -4.671020   7.176020   4.327300  -0.544371  11.966500   8.363070  17.043100  -2.892170  -0.194714   8.707680 -65.020100  27.227500 -12.704700  -4.826420  -6.176520 -15.816300  15.559300   0.915314   7.220550  38.074800  30.369100 -62.734600 -30.623300  -0.000967  -0.000480 -10.311700   0.002897  -0.004685 -32.865100   7.200530 -10.979400 -27.456800   0.000327   0.006317 -19.219800   0.002256   0.005577 -28.770000   0.798071  -1.453040 -41.451300  -0.002600   0.016261 -27.606600  -0.004922   0.006428 -27.776400  -0.820951   1.558130 -30.714400   0.002572   0.018290 -20.455800   0.004440   0.005167 -28.363600  -0.836962   1.549740 -42.562900  -0.005927   0.022787 -28.346900  -0.003328  -0.000640   0.614717  -5.540360   6.784540  48.556000 -20.107900  65.570000 -18.475200 -31.023600  55.622500  29.214200 -10.088600  15.129600 -65.719300  47.593500  71.824500  18.855200   0.017463  -0.005943   4.427620   0.011261   0.031372  21.618500  -2.732700  -6.802150  17.782300   0.128744   0.026070  12.447600   0.091991  -0.003623  18.752900  -3.555130 -10.904600  19.131500   0.134338   0.057046  12.741500   0.095090   0.016776  22.592000  -4.471460 -10.890800  23.274300   0.206739   0.036423  15.500800   0.137607  -0.016089  33.906900  -7.865830 -11.515100  52.064400   0.204481  -0.126329  34.674800   0.060756  -0.147391   1.300590  13.600500   4.938320  -0.915416   4.204340  20.119600  -4.765330  -7.631060   5.337900   0.000000   0.000000   0.000000   3.989190  11.545900  -7.568300   0.184231   3.551100  -2.683140 -11.098300  -1.585390  10.633100   0.000000   0.000000   0.000000
 -2.858720  89.818800   0.957805  -3.646800 -10.838800 -11.819600   0.226828   8.549320  -2.225000   0.804962  17.083000  -4.561890   7.242900   4.326170  -0.549987  12.086500   8.363060  16.921900  -2.861790  -0.185660   8.690960 -65.124200  27.066800 -12.601500  -4.796710  -6.128460 -16.027300  15.528100   0.597851   7.237720  38.132400  30.459300 -62.717000 -30.565700  -0.000803  -0.000440 -10.282800   0.002850  -0.004627 -32.891900   7.187870 -10.947700 -27.477300   0.000311   0.003646 -19.234200   0.002172   0.005384 -28.771200   0.778138  -1.416650 -41.544000  -0.002510   0.013215 -27.668400  -0.003860   0.007286 -27.777900  -0.839214   1.592560 -30.726900   0.002417   0.017477 -20.464100   0.004273   0.005072 -28.423100  -0.856977   1.583130 -42.652700  -0.005240   0.021522 -28.406700  -0.003539   0.000628   0.617485  -5.577040   6.755230  48.994900 -20.737300  66.061200 -19.268500 -29.912400  54.779200  28.490800  -3.286270   9.562250 -60.453000  45.963800  64.728100  19.358700   0.040094  -0.015399   4.679420   0.023413   0.039682  24.734300  -3.619270  -8.064620  20.479000   0.059442   0.012518  14.335300   0.043004  -0.004890  22.295500  -4.042280 -10.216300  22.682000   0.071815   0.027182  15.106100   0.050904   0.005377  25.945800  -4.900200 -10.148200  27.718200   0.142749   0.013532  18.460300   0.093430  -0.017903  37.469800  -8.369250 -11.050000  57.412400   0.145625  -0.084543  38.236600   0.041616  -0.104912   1.302080  13.565000   4.931710  -0.936711   4.259330  20.075200  -4.738520  -7.675720   5.368150  -0.000000   0.000000  -0.000000   3.988590  11.536000  -7.580040   0.186602   3.552330  -2.712620 -11.097300  -1.581540  10.645000   0.000000   0.000000   0.000000
 -2.831270  89.827500   0.963073  -3.634780 -10.818200 -11.751700   0.199590   8.517880  -2.183260   0.743999  17.021600  -4.472290   7.291070   4.318250  -0.551971  12.157300   8.332140  16.851600  -2.831310  -0.184379   8.662860 -65.221200  26.887600 -12.481300  -4.769650  -6.094880 -16.248200  15.490300   0.306042   7.270770  38.297900  30.611900 -62.746200 -30.520900  -0.000642  -0.000355 -10.260400   0.002798  -0.004567 -32.903700   7.165480 -10.911800 -27.482100   0.000305   0.001347 -19.237500   0.002090   0.005164 -28.772300   0.757384  -1.378820 -41.580400  -0.002399   0.012074 -27.692600  -0.003549   0.008940 -27.777200  -0.857912   1.628130 -30.728700   0.002278   0.014949 -20.465300   0.004106   0.004979 -28.445400  -0.876808   1.618020 -42.687200  -0.004597   0.018292 -28.429600  -0.003800   0.002000   0.628669  -5.637570   6.703570  49.465300 -21.464700  66.479700 -19.843600 -28.812300  54.278300  31.017000   2.755220   4.649080 -55.936300  42.632700  57.884300  19.430700   0.066257  -0.023281   4.715380   0.035443   0.047993  26.448300  -4.027290  -8.456100  21.954200   0.009500  -0.001647  15.368000   0.006068  -0.006130  24.309900  -4.233120  -9.264280  24.656400   0.017967  -0.002638  16.421100   0.011155  -0.005663  27.739800  -5.220070  -9.781610  30.587600   0.053181  -0.009286  20.371300   0.031143  -0.018833  40.154000  -8.581360 -10.208000  61.447200   0.058624  -0.037481  40.923800   0.012213  -0.044825   1.299980  13.518200   4.928940  -0.955420   4.318220  20.005000  -4.716350  -7.715340   5.375960  -0.000000   0.000000   0.000000   3.984690  11.518300  -7.586470   0.190531   3.558950  -2.767580 -11.095900  -1.579490  10.646700   0.000000   0.000000  -0.000000
 -2.805070  89.836300   0.973681  -3.605230 -10.800100 -11.637500   0.169597   8.499130  -2.162990   0.679346  16.985400  -4.424940   7.305800   4.276640  -0.548146  12.179900   8.241870  16.851200  -2.806550  -0.203498   8.634010 -65.285600  26.723000 -12.364600  -4.743670  -6.069800 -16.445000  15.471900   0.100694   7.303930  38.451000  30.815100 -62.819900 -30.509100  -0.000479  -0.000234 -10.254500   0.002737  -0.004486 -32.895200   7.134370 -10.868900 -27.469900   0.000307   0.000164 -19.229000   0.002009   0.004947 -28.773400   0.738198  -1.343830 -41.574100  -0.002271   0.009980 -27.688100  -0.003066   0.010816 -27.772800  -0.878242   1.667080 -30.703300   0.002155   0.009794 -20.448400   0.003940   0.004881 -28.433100  -0.897464   1.656790 -42.669700  -0.004069   0.012882 -28.418000  -0.003859   0.003044   0.656914  -5.696170   6.654970  49.942700 -22.262900  66.623300 -19.954000 -28.126100  54.542900  36.009000   6.176200   0.477325 -53.641300  38.573000  53.163600  17.014200   0.070885  -0.020905   3.507150   0.035975   0.043702  26.589200  -3.247380  -6.831990  21.931300   0.009137  -0.009261  15.352000   0.003630  -0.007473  24.359900  -4.200250  -9.080310  24.709000   0.004138  -0.013618  16.456200  -0.000812  -0.008684  27.731100  -5.372770 -10.045100  30.952700   0.014855  -0.023822  20.614600   0.002882  -0.020252  40.929300  -8.241270  -9.416040  62.542300   0.004900  -0.031325  41.653100  -0.008499  -0.016874   1.286960  13.454200   4.927590  -0.970732   4.389180  19.919500  -4.701510  -7.745630   5.364170  -0.000000   0.000000   0.000000   3.973680  11.501700  -7.593420   0.195198   3.573110  -2.822990 -11.093600  -1.586760  10.601600  -0.000000   0.000000   0.000000
